<svg width="22" height="14" viewBox="0 0 22 14" fill="none" xmlns="http://www.w3.org/2000/svg">
<path fill-rule="evenodd" clip-rule="evenodd" d="M-0.000237123 7C-0.000237105 7.20625 0.081695 7.40405 0.227537 7.54989C0.373378 7.69574 0.571182 7.77767 0.777431 7.77767L19.1195 7.77767L14.2249 12.6708C14.1526 12.7431 14.0952 12.8289 14.0561 12.9234C14.017 13.0178 13.9968 13.1191 13.9968 13.2213C13.9968 13.3236 14.017 13.4249 14.0561 13.5193C14.0952 13.6138 14.1526 13.6996 14.2249 13.7719C14.2972 13.8442 14.383 13.9016 14.4775 13.9407C14.572 13.9799 14.6732 14 14.7755 14C14.8777 14 14.979 13.9799 15.0734 13.9407C15.1679 13.9016 15.2538 13.8442 15.3261 13.7719L21.5474 7.55059C21.6198 7.47835 21.6773 7.39253 21.7165 7.29805C21.7557 7.20357 21.7759 7.10229 21.7759 7C21.7759 6.89771 21.7557 6.79642 21.7165 6.70194C21.6773 6.60747 21.6198 6.52165 21.5474 6.44941L15.3261 0.228059C15.2538 0.155756 15.1679 0.0984007 15.0734 0.0592695C14.979 0.0201384 14.8777 -1.30429e-06 14.7755 -1.29535e-06C14.6732 -1.28641e-06 14.572 0.0201384 14.4775 0.0592696C14.383 0.0984008 14.2972 0.155756 14.2249 0.228059C14.1526 0.300364 14.0952 0.386202 14.0561 0.480673C14.017 0.575143 13.9968 0.676396 13.9968 0.77865C13.9968 0.880904 14.017 0.982156 14.0561 1.07663C14.0952 1.1711 14.1526 1.25693 14.2249 1.32924L19.1195 6.22233L0.777431 6.22233C0.571182 6.22233 0.373378 6.30426 0.227536 6.45011C0.0816949 6.59595 -0.000237141 6.79375 -0.000237123 7Z" fill="#36276F"/>
</svg>
