<svg width="562" height="413" viewBox="0 0 562 413" fill="none" xmlns="http://www.w3.org/2000/svg">
<path d="M118 143.5L159.5 75L210.5 82.5L278 113L317.5 163.5L332.5 225.5V294L293.5 372.5L264 383.5L202 372.5L138.5 313.5L104 225.5L118 143.5Z" fill="#F49CC3"/>
<path d="M314 160C374 254.5 335.167 348.5 306 383.5C468.5 370.5 490 153.5 402.5 89.5C215.5 108 214 306.5 284.5 376.5C341.5 298.5 321.5 223 296 177.5L314 160Z" fill="#F49CC3"/>
<path d="M207.5 79L274 17L357.5 79L274 131.5L207.5 79Z" fill="#F49CC3"/>
<path d="M256.5 382L250.5 405C275 411 303.5 408.5 312.5 405L309 380.5C377 295.7 344 190.5 316.5 156L299 175C347.4 269 308.5 345.833 283 372.5L256.5 382Z" fill="#37266F"/>
<path d="M308.5 381L309 406C514.5 447 582.5 256.002 556 173.501C518.5 147.002 477.5 140.001 465 140.501L473 167.001C488.6 166.601 525.5 183.001 532.5 188.5C549.5 328 437 387 373 387L362 363.5C349.6 375.1 321.167 380 308.5 381Z" fill="#37266F"/>
<path d="M221 80L193 71.5C212.2 34.7 260.167 8.333 281.5 0C324 16 362.5 54 373.5 73L349 80.5C330.5 58.5 299 33.5 281.5 28.5C254.5 36.5 227.5 64 221 80Z" fill="#37266F"/>
<path d="M5.49995 173.002C24.5 158.502 76 137.5 101 139.5L92.5 165.5C70 168.5 40.5 181.001 29 188.501C13.5 344.501 142.5 388.001 195.5 388.001L251 405C84.5 448.5 -26.5 298.001 5.49995 173.002Z" fill="#37266F"/>
<path d="M151.5 67.0021C211 65.0031 264.333 99.3351 283 117.002L264.5 136C237.5 108.5 190.5 92.0001 161 92.0001C37.9998 244.5 183.258 380.5 257 380.5L251 405L195.5 388C24.4998 288.5 88.4998 117.002 151.5 67.0021Z" fill="#37266F"/>
<path d="M416 66.5C204.5 82.5 182 296.5 256.5 382L283.5 372.5C172.5 229.5 316 86.5 405 92.5C517 218.5 414 369.5 307.5 381.5L373.5 387C531 295 485 128.5 416 66.5Z" fill="#37266F"/>
<path d="M255.5 380.5L195.5 388.5L191 404.5H250.5L309 406L321 404.5L329.5 396.5L309 380.5L283.5 372.5L255.5 380.5Z" fill="#37266F"/>
</svg>
