<svg width="2314" height="802" viewBox="0 0 2314 802" fill="none" xmlns="http://www.w3.org/2000/svg">
<path d="M402.416 112.49C402.416 46.5531 363.67 11.4042 288.67 11.4042C167.637 11.4042 86.4601 122.942 86.4601 252.257C86.4601 315.04 122.41 339.922 202.739 339.922C321.809 339.922 402.416 250.784 402.416 112.49ZM492.852 126.506C492.852 262.516 359.74 352.076 199.647 352.076C74.953 352.076 0.248047 298.732 0.248047 215.445C0.248047 77.1251 124.943 0.954102 291.191 0.954102C423.765 0.954102 492.852 44.4541 492.852 126.506Z" fill="#2E0D74"/>
<path d="M603.76 187.19C603.76 190.518 603.49 192.835 603.19 196.368C628.482 159.133 684.085 127.525 727.316 127.525C761.594 127.525 784.351 141.783 784.351 163.113C784.351 182.978 757.375 197.423 736.896 197.423C733.504 197.423 730.708 197.02 727.886 196.182C724.518 168.976 709.645 154.532 686.888 154.532C650.939 154.532 604.316 202.44 585.789 257.48L555.73 345.58C555.435 347.045 549.847 347.89 549.847 347.89L513.337 348.313C494.502 348.313 477.664 347.045 477.664 343.283C477.664 342.861 477.932 342.009 477.932 341.19L511.929 190.109C513.337 183.605 513.894 178.371 513.894 174.192C513.894 164.156 510.515 159.985 505.452 159.985C498.451 159.985 488.614 167.492 480.186 179.875L463.885 203.497L458.854 201.602L475.136 177.974C493.664 150.96 521.483 144.887 552.369 144.887C592.239 144.887 603.76 163.74 603.76 187.19Z" fill="#2E0D74"/>
<path d="M832.4 64.9702C856.835 64.9702 875.931 79.8632 875.931 97.4172C875.931 115.837 855.707 129.872 832.4 129.872C807.702 129.872 788.88 115.011 788.88 97.4172C788.88 78.9922 808.815 64.9702 832.4 64.9702ZM903.136 316.926C887.693 339.307 857.378 350.405 828.164 350.405C792.484 350.405 759.364 333.663 759.364 300.6C759.364 281.976 765.258 261.664 768.914 247.028L782.391 190.133C783.799 183.631 784.623 178.178 784.623 173.806C784.623 164.393 781.264 160.411 776.208 160.411C769.457 160.411 759.364 168.156 750.648 180.693L742.007 191.157L736.944 189.288L745.599 178.805C764.127 151.816 791.927 146.998 822.826 146.998C822.826 146.998 896.322 157.82 856.238 257.491L842.493 294.323C840.795 298.93 839.971 302.891 839.971 306.456C839.971 319.845 851.208 326.135 864.393 326.135C878.441 326.135 895.008 319.218 903.707 306.643L923.098 278.61L927.865 280.703L903.136 316.926Z" fill="#2E0D74"/>
<path d="M1141.05 188.86C1141.05 165.405 1125.05 153.072 1094.16 153.072C1044.71 153.072 1001.48 209.154 994.463 269.639C1084.62 269.639 1141.05 246.184 1141.05 188.86ZM993.329 286.784C993.329 323.397 1016.09 337.861 1067.77 337.861C1109.04 337.861 1157.07 320.262 1179.53 299.974L1189.91 306.874C1155.67 335.353 1103.15 352.076 1042.21 352.076C957.95 352.076 906.542 319.642 906.542 268.986C906.542 186.127 988.549 142.621 1096.96 142.621C1176.73 142.621 1218.86 160.605 1218.86 194.511C1218.86 250.792 1113.83 279.437 993.623 280.096C993.329 282.374 993.329 284.474 993.329 286.784Z" fill="#2E0D74"/>
<path d="M1339.06 187.19C1339.06 193.263 1338.22 199.503 1337.09 206.005L1394.1 171.056C1424.98 152.24 1457.3 142.826 1481.72 142.826C1533.67 142.826 1549.14 164.553 1549.14 192.604C1549.14 212.924 1539.3 236.776 1530.31 257.48L1487.91 353.734C1483.98 362.533 1482.02 370.686 1482.02 378.034C1482.02 401.233 1486.6 422.353 1540.81 422.353C1587.7 422.353 1612.99 405.61 1612.99 374.636C1643.58 374.636 1663.81 384.049 1663.81 398.084C1663.81 425.258 1624.77 439.703 1552.32 439.703C1440.25 439.703 1427.81 371.115 1427.81 326.758C1427.81 257.089 1458.69 229.225 1458.69 182.364C1458.69 171.703 1455.06 163.542 1442.69 163.542C1431.17 163.542 1415.73 171.472 1403.08 179.017L1333.17 222.139C1329.24 235.298 1324.19 247.873 1321.09 257.48L1291.04 345.58C1290.75 347.045 1287.11 347.89 1285.42 347.89H1251.43C1232.61 347.89 1213.23 345.791 1213.23 341.58C1213.23 341.401 1213.8 338.905 1213.8 338.675L1247.22 190.109C1248.64 183.605 1249.47 178.371 1249.47 174.192C1249.47 164.156 1245.82 159.985 1240.76 159.985C1233.74 159.985 1223.91 167.492 1215.49 179.875L1199.19 203.497L1194.15 201.602L1210.44 177.974C1228.97 150.96 1256.78 144.887 1287.67 144.887C1327.54 144.887 1339.06 163.74 1339.06 187.19Z" fill="#2E0D74"/>
<path d="M1549.14 157.89V146.991H1606.15L1613.46 111.413C1619.05 85.4752 1652.47 64.9702 1678.33 64.9702H1710.9C1714.26 64.9702 1717.09 65.3862 1717.09 66.0072C1717.09 66.2112 1716.8 67.0823 1716.8 67.2863L1693.2 146.991H1775.79V157.89H1689.83L1649.4 294.321C1648.57 297.688 1648 300.593 1648 303.333C1648 319.857 1661.75 326.327 1677.76 326.327C1696.57 326.327 1718.76 317.745 1726.34 306.667L1745.72 278.61L1750.5 280.696L1725.78 316.919C1710.07 339.722 1678.88 350.999 1649.4 350.999C1612.33 350.999 1577.51 333.643 1577.51 299.121C1577.51 280.926 1582.55 261.234 1585.34 247.021L1603.91 157.89H1549.14Z" fill="#2E0D74"/>
<path d="M1933.36 153.91C1863.98 153.91 1817.65 208.329 1817.65 289.952C1817.65 321.106 1839.55 337.861 1880.56 337.861C1933.36 337.861 1963.14 296.838 1979.69 264.814C1982.22 260.424 1983.64 249.754 1983.92 247.034L1988.98 192.201C1989.25 190.139 1989.81 186.774 1989.81 183.638C1989.81 181.322 1989.53 179.222 1988.41 177.954C1976.62 160.835 1952.74 153.91 1933.36 153.91ZM2093.74 147.017C2090.91 169.827 2068.44 239.72 2061.72 257.499L2048.81 294.329C2047.95 297.862 2047.38 301.228 2047.38 304.167C2047.38 319.423 2059.19 326.335 2073.24 326.335C2087.55 326.335 2104.12 319.225 2112.83 306.649L2132.2 278.618L2136.97 280.704L2112.26 316.934C2095.96 340.774 2070.71 352.076 2046.81 352.076C2012.84 352.076 1981.12 329.279 1981.12 288.449C1960.6 320.467 1927.48 352.076 1855.84 352.076C1781.15 352.076 1731.17 319.423 1731.17 270.49C1731.17 193.884 1803.05 142.622 1910.64 142.622C1955 142.622 1983.08 152.649 1997.12 171.484C2010.04 149.507 2031.67 147.017 2038.13 147.017H2093.74Z" fill="#2E0D74"/>
<path d="M479.83 644.79C440.226 644.79 408.476 660.079 408.476 686.447C408.476 704.641 428.149 716.36 460.431 716.36C498.632 716.36 531.502 694.837 546.945 661.352C520.552 651.069 497.794 644.79 479.83 644.79ZM610.142 664.885C714.339 700.68 844.927 754.862 948.28 754.862C981.398 754.862 1012.04 749.447 1037.86 735.822L1042.62 737.921L1012.58 767.841C988.156 792.109 956.702 801.747 921.328 801.747C823.29 801.747 693.833 727.656 593.297 681.212C559.59 709.89 511.84 726.817 457.627 726.817C418.025 726.817 394.167 711.983 394.167 688.758C394.167 654.633 434.039 634.34 482.351 634.34C501.455 634.339 525.312 638.947 552.006 646.46L552.562 645.219L607.052 384.476C609.574 373.826 611.269 365.852 611.269 360.01C611.269 345.149 600.588 343.069 563.79 343.069L564.647 338.877C589.126 339.063 617.361 331.805 641.028 340.42C689.571 358.083 694.603 405.212 680.631 449.985L641.297 606.295C635.696 628.266 624.746 647.965 610.142 664.885Z" fill="#2E0D74"/>
<path d="M963.22 566.34C963.22 530.763 944.979 511.922 910.421 511.922C851.441 511.922 806.807 582.864 806.807 653.608C806.807 687.053 824.221 700.461 861.264 700.461C919.969 700.461 963.22 643.138 963.22 566.34ZM1049.74 579.498C1049.74 660.693 964.065 710.932 858.466 710.932C773.936 710.932 722.821 678.472 722.821 627.868C722.821 544.978 804.822 501.471 913.243 501.471C1002.83 501.471 1049.74 528.677 1049.74 579.498Z" fill="#2E0D74"/>
<path d="M946.26 516.75V505.858H1098.66L1105.95 470.275C1111.57 444.342 1145.01 423.837 1170.83 423.837H1203.41C1206.78 423.837 1209.58 424.253 1209.58 424.874C1209.58 425.079 1209.32 425.936 1209.32 426.147L1185.72 505.858H1268.28V516.75H1182.35L1141.91 653.189C1141.05 656.549 1140.52 659.461 1140.52 662.18C1140.52 678.712 1154.26 685.201 1170.27 685.201C1183.73 685.201 1197.29 684.696 1210.6 682.685C1232.93 679.364 1255.19 665.003 1275.82 656.062L1280.58 658.174C1258.72 674.519 1240.33 695.992 1213.05 703.203C1189.98 709.322 1165.67 709.866 1141.91 709.866C1104.84 709.866 1070 692.516 1070 657.989C1070 639.801 1075.07 620.101 1077.89 605.888L1096.43 516.75H946.26Z" fill="#2E0D74"/>
<path d="M1382.67 555.46C1382.67 571.364 1377.61 588.931 1368.92 605.667L1357.97 628.067C1352.62 639.138 1347.29 654.651 1347.29 667.201C1347.29 679.316 1352.05 688.731 1366.66 688.731C1380.14 688.731 1398.11 682.062 1410.19 674.746L1480.13 631.823C1481.23 618.665 1483.5 606.096 1485.46 596.253L1503.99 508.165C1504.28 506.501 1507.36 505.855 1509.89 505.855H1556.24C1575.04 505.855 1594.44 507.966 1594.44 512.145V512.536L1549.22 663.637C1548.09 668.244 1547.53 672.001 1547.53 675.566C1547.53 688.136 1554.82 693.78 1564.09 693.78C1575.32 693.78 1589.39 686.235 1597.79 673.896L1614.09 650.248L1619.14 652.111L1602.86 675.783C1587.13 698.778 1561.57 710.292 1537.7 710.292C1503.99 710.292 1478.98 690.625 1478.98 646.037L1419.18 682.682C1388.29 701.723 1359.37 710.733 1336.04 710.733C1288.86 710.733 1273.42 684.123 1273.42 650.869C1273.42 633.519 1277.64 614.249 1283.53 596.253L1295.91 559.441C1298.14 553.136 1298.97 547.722 1298.97 543.313C1298.97 532.433 1293.36 527.633 1285.5 527.633C1276.22 527.633 1291.41 500.818 1313.87 500.818C1363.86 500.818 1382.67 525.093 1382.67 555.46Z" fill="#2E0D74"/>
<path d="M1605.99 679.32C1602.35 675.569 1600.93 671.991 1600.93 668.434C1600.93 652.113 1615.81 643.545 1643.35 643.545L1643.63 645.01C1648.11 682.25 1680.13 700.676 1732.09 700.676C1776.47 700.676 1817.47 686.238 1817.47 661.97C1817.47 642.303 1768.05 633.293 1721.99 622.611C1678.73 612.352 1638.86 594.791 1638.86 566.528C1638.86 522.178 1700.07 501.66 1784.32 501.66C1824.76 501.66 1862.42 504.603 1885.43 528.674C1889.09 532.239 1890.21 535.995 1890.21 539.349C1890.21 553.793 1874.48 563.405 1850.61 563.405C1845.82 525.32 1825.89 511.713 1781.52 511.713C1750.08 511.932 1719.73 520.712 1719.73 544.98C1719.73 563.815 1759.89 569.268 1796.97 582.868C1841.9 599.194 1888.52 613.632 1888.52 645.215C1888.52 687.288 1813.54 711.127 1729.28 711.127C1682.39 711.127 1630.71 705.483 1605.99 679.32Z" fill="#2E0D74"/>
<path d="M2245.02 61.05C2255.03 90.24 2246.67 131.277 2243.42 141.528C2243.39 141.573 2194.54 295.363 2194.54 295.363C2193.41 299.311 2192.87 302.888 2192.87 306.013C2192.87 321.3 2203.52 327.156 2216.74 327.156C2236.83 327.156 2254.83 316.732 2270.87 305.711C2275.12 302.799 2305.12 277.027 2308.85 278.652L2313.63 280.739V280.752C2295.83 301.289 2281.75 323.547 2256.33 335.399C2235.38 345.153 2211.11 352.072 2187.81 352.072C2154.11 352.072 2122.93 334.472 2122.93 299.125C2122.93 281.104 2127.15 262.084 2130.51 248.049L2169.55 76.0649C2173.21 59.7379 2174.9 49.902 2174.9 43.829C2174.9 34.613 2171.24 34.613 2165.62 34.613L2166.18 30.4399C2166.18 30.4399 2209.85 30.869 2209.98 30.869C2219.42 30.945 2239.33 44.45 2245.02 61.05Z" fill="#2E0D74"/>
</svg>
