<svg width="42" height="42" viewBox="0 0 42 42" fill="none" xmlns="http://www.w3.org/2000/svg">
<rect x="20.7959" width="29.4098" height="29.4098" transform="rotate(45 20.7959 0)" fill="#36276F"/>
<path fill-rule="evenodd" clip-rule="evenodd" d="M14.0003 20.5002C14.0003 20.6328 14.0529 20.76 14.1467 20.8537C14.2404 20.9475 14.3676 21.0002 14.5002 21.0002L26.2922 21.0002L23.1455 24.1459C23.099 24.1924 23.0621 24.2476 23.037 24.3083C23.0118 24.3691 22.9989 24.4342 22.9989 24.4999C22.9989 24.5656 23.0118 24.6307 23.037 24.6915C23.0621 24.7522 23.099 24.8074 23.1455 24.8539C23.192 24.9004 23.2472 24.9372 23.3079 24.9624C23.3686 24.9875 23.4337 25.0005 23.4995 25.0005C23.5652 25.0005 23.6303 24.9875 23.691 24.9624C23.7518 24.9372 23.807 24.9004 23.8534 24.8539L27.8531 20.8542C27.8997 20.8078 27.9366 20.7526 27.9618 20.6918C27.987 20.6311 28 20.566 28 20.5002C28 20.4345 27.987 20.3693 27.9618 20.3086C27.9366 20.2479 27.8997 20.1927 27.8531 20.1463L23.8534 16.1466C23.807 16.1001 23.7518 16.0632 23.691 16.0381C23.6303 16.0129 23.5652 16 23.4995 16C23.4337 16 23.3686 16.0129 23.3079 16.0381C23.2472 16.0632 23.192 16.1001 23.1455 16.1466C23.099 16.1931 23.0621 16.2483 23.037 16.309C23.0118 16.3697 22.9989 16.4348 22.9989 16.5006C22.9989 16.5663 23.0118 16.6314 23.037 16.6921C23.0621 16.7529 23.099 16.808 23.1455 16.8545L26.2922 20.0003L14.5002 20.0003C14.3676 20.0003 14.2404 20.0529 14.1467 20.1467C14.0529 20.2405 14.0003 20.3676 14.0003 20.5002Z" fill="white"/>
</svg>
