<svg width="3000" height="1000" viewBox="0 0 3000 1000" fill="none" xmlns="http://www.w3.org/2000/svg">
<path d="M205.109 420.401H78.3388V450.857C78.8468 450.857 79.3538 451.111 79.8618 451.618C80.3688 452.126 80.8128 452.38 81.1938 452.38C80.1788 452.38 79.6078 452.316 79.4808 452.189C79.4808 451.555 88.9348 449.524 107.843 446.098C114.822 444.829 121.738 444.195 128.59 444.195C157.142 444.195 175.479 452.189 183.6 468.178C189.057 478.838 191.785 500.347 191.785 532.706V605.989C189.12 604.974 179.032 600.849 161.52 593.616C161.52 589.556 160.695 586.954 159.046 585.812C152.32 589.746 146.8 592.728 142.485 594.758C128.781 601.23 112.855 604.466 94.7088 604.466C69.7098 604.466 50.4218 596.598 36.8438 580.863C30.2448 573.249 26.9458 564.747 26.9458 555.357C26.9458 544.824 32.1478 534.355 42.5538 523.95C62.7308 503.773 87.7928 493.685 117.741 493.685C135.887 493.685 150.48 497.872 161.52 506.247V488.736C155.937 481.629 150.512 476.871 145.246 474.46C139.979 472.049 132.778 470.97 123.641 471.224C103.211 471.604 84.4928 475.348 67.4888 482.454C59.8748 485.627 52.4518 488.482 45.2188 491.02V476.934C46.8678 475.538 49.2788 473.445 52.4518 470.653C52.9588 470.018 53.2768 469.638 53.4038 469.511V420.401H14.3828V397.56H205.109V420.401ZM161.52 540.89C161.52 535.307 154.858 530.294 141.534 525.853C130.494 522.173 121.294 520.333 113.934 520.333C87.1578 520.333 65.7128 529.977 49.5968 549.266C43.1248 557.006 39.8888 563.351 39.8888 568.3C42.5538 577.564 53.0228 582.195 71.2958 582.195C94.8988 582.195 116.472 576.295 136.014 564.493C153.018 554.215 161.52 546.347 161.52 540.89Z" fill="#372267"/>
<path d="M372.804 420.401H276.489V573.63C276.489 577.944 277.885 582.132 280.677 586.193C283.595 590.634 287.148 592.855 291.336 592.855C310.244 592.855 319.698 573.313 319.698 534.228L357.957 556.118C343.364 588.477 320.776 604.593 290.194 604.466C272.428 604.339 258.596 596.218 248.698 580.102C244.384 573.122 242.227 566.143 242.227 559.164V420.401H202.444V397.56H242.227V333.604L276.489 357.397V397.56H372.804V420.401Z" fill="#372267"/>
<path d="M434.666 377.574C434.159 378.081 432.7 378.335 430.288 378.335C428.258 378.335 426.482 378.081 424.959 377.574L412.586 352.258C407.51 344.263 400.626 338.838 391.934 335.983C383.241 333.128 377.88 329.987 375.85 326.561C373.946 320.724 370.266 311.777 364.809 299.722V295.344H372.233C382.004 298.39 389.935 301.245 396.026 303.91C406.051 308.351 412.777 313.491 416.203 319.328C418.106 322.5 421.025 330.622 424.959 343.692C428.639 356.001 431.748 364.567 434.286 369.389C434.54 371.673 434.666 374.401 434.666 377.574ZM445.897 420.401H368.426V397.56H445.897V420.401ZM424.197 608.463L392.219 590.761V443.814H424.197V608.463Z" fill="#372267"/>
<path d="M612.83 420.401H516.515V573.63C516.515 577.944 517.911 582.132 520.703 586.193C523.621 590.634 527.175 592.855 531.362 592.855C550.27 592.855 559.724 573.313 559.724 534.228L597.983 556.118C583.39 588.477 560.802 604.593 530.22 604.466C512.454 604.339 498.623 596.218 488.725 580.102C484.41 573.122 482.253 566.143 482.253 559.164V420.401H442.471V397.56H482.253V333.604L516.515 357.397V397.56H612.83V420.401Z" fill="#372267"/>
<path d="M819.355 420.401H665.746V477.696C679.578 462.595 692.395 452.887 704.196 448.573C710.795 446.162 718.218 444.956 726.467 444.956C757.43 444.956 780.588 460.184 795.943 490.639C802.668 503.963 806.031 517.097 806.031 530.041C806.031 553.644 796.324 574.962 776.908 593.997C770.437 600.342 765.614 604.72 762.442 607.131L731.225 588.477C739.093 580.229 748.039 570.077 758.064 558.022C769.358 544.444 775.068 527.312 775.195 506.628C775.322 494.319 772.53 484.04 766.82 475.792C760.348 466.148 751.212 461.453 739.41 461.707C728.497 461.96 716.823 466.084 704.387 474.079C693.22 481.185 683.956 489.687 676.596 499.585C668.602 510.245 664.604 520.523 664.604 530.421V605.989L629.01 586.954V420.401H608.072V397.56H629.01C629.01 360.252 619.302 328.401 599.887 302.006C588.212 286.144 577.426 274.977 567.528 268.505L605.978 268.125C627.296 279.799 644.237 304.988 656.8 343.692C662.764 362.092 665.746 380.048 665.746 397.56H819.355V420.401Z" fill="#372267"/>
<path d="M881.599 377.574C881.091 378.081 879.632 378.335 877.221 378.335C875.19 378.335 873.414 378.081 871.891 377.574L859.518 352.258C854.443 344.263 847.558 338.838 838.866 335.983C830.173 333.128 824.812 329.987 822.782 326.561C820.878 320.724 817.198 311.777 811.742 299.722V295.344H819.165C828.936 298.39 836.867 301.245 842.958 303.91C852.983 308.351 859.709 313.491 863.135 319.328C865.039 322.5 867.957 330.622 871.891 343.692C875.571 356.001 878.68 364.567 881.218 369.389C881.472 371.673 881.599 374.401 881.599 377.574ZM892.829 420.401H815.358V397.56H892.829V420.401ZM871.13 608.463L839.151 590.761V443.814H871.13V608.463Z" fill="#372267"/>
<path d="M1215.09 420.401H1190.15L1189.77 606.369L1155.13 591.522V564.303C1134.57 590.824 1114.4 604.085 1094.6 604.085C1082.04 604.085 1068.33 598.819 1053.49 588.287C1040.8 579.277 1030.26 568.744 1021.89 556.689C1011.99 542.477 1007.1 528.645 1007.23 515.194C1007.36 502.885 1014.15 488.609 1027.6 472.366C1042.7 454.093 1060.91 444.956 1082.23 444.956C1095.81 444.956 1109.45 450.73 1123.15 462.278C1127.34 465.704 1138 476.744 1155.13 495.398V420.401H992.195V397.56H1155.13C1155.13 371.292 1152.91 350.735 1148.47 335.888C1141.87 313.808 1127.15 287.54 1104.31 257.085C1103.8 256.831 1103.55 255.816 1103.55 254.039C1103.55 252.516 1103.93 251.501 1104.69 250.994H1141.04C1173.78 287.159 1190.15 336.015 1190.15 397.56H1215.09V420.401ZM1145.99 507.009C1145.99 497.111 1140.6 488.609 1129.81 481.502C1120.17 475.158 1110.15 471.985 1099.74 471.985C1092.13 471.985 1082.61 475.538 1071.19 482.645C1046.32 498.126 1033.88 516.399 1033.88 537.464C1033.88 549.012 1036.99 559.037 1043.21 567.539C1050.06 577.056 1059.01 581.815 1070.05 581.815C1081.47 581.815 1093.65 576.612 1106.59 566.206C1115.6 558.973 1123.98 550.09 1131.72 539.558C1141.23 526.614 1145.99 515.765 1145.99 507.009Z" fill="#372267"/>
<path d="M1412.47 420.401H1360.51V457.9C1366.47 459.295 1370.79 461.009 1373.45 463.039V485.5C1358.35 480.297 1342.61 477.696 1326.24 477.696C1314.44 477.696 1303.02 479.662 1291.98 483.596C1277.26 488.799 1269.84 496.223 1269.71 505.867C1269.46 516.019 1283.86 521.094 1312.92 521.094C1313.55 521.094 1317.68 520.904 1325.29 520.523L1336.71 519.952V537.464C1319.46 537.972 1308.67 538.416 1304.35 538.797C1274.03 541.461 1258.86 550.217 1258.86 565.064C1258.86 573.313 1264.13 579.784 1274.66 584.48C1282.91 588.16 1291.79 590 1301.31 590C1342.55 590 1375.92 571.726 1401.43 535.18V583.338C1379.6 597.169 1353.78 604.085 1323.96 604.085C1291.35 604.085 1263.18 596.535 1239.45 581.434C1227.9 574.074 1222.12 565.635 1222.12 556.118C1222.12 546.855 1226.19 538.797 1234.31 531.944C1239.26 527.757 1247.44 522.934 1258.86 517.478L1246.3 510.245C1238.81 505.93 1235.07 500.156 1235.07 492.923C1235.07 477.188 1246.93 465.894 1270.66 459.042C1288.68 453.839 1308.92 451.237 1331.38 451.237V420.401H1209.37V397.56H1412.47V420.401Z" fill="#372267"/>
<path d="M1646.22 397.56L1645.84 420.401H1626.42V456.758C1624.14 461.326 1618.81 470.97 1610.44 485.69L1542.86 604.466C1531.57 604.466 1516.79 595.52 1498.51 577.627C1478.46 558.085 1468.44 536.386 1468.44 512.529C1468.44 500.347 1472.37 488.989 1480.24 478.457C1483.79 473.635 1485.57 470.018 1485.57 467.607C1485.57 463.166 1481.83 460.945 1474.34 460.945C1468.75 460.945 1463.36 463.229 1458.16 467.798C1456.26 469.447 1452.13 473.952 1445.79 481.312L1421.23 459.042C1429.61 451.935 1437.79 447.557 1445.79 445.908C1449.72 445.02 1454.8 444.575 1461.01 444.575C1495.4 444.195 1512.6 462.531 1512.6 499.585C1512.6 504.534 1512.06 511.958 1510.98 521.856C1509.9 531.754 1509.36 539.177 1509.36 544.126C1509.36 564.176 1512.91 575.089 1520.02 576.866C1523.96 576.866 1528.59 572.044 1533.92 562.399L1591.97 457.519V420.401H1406.96V397.56H1646.22Z" fill="#372267"/>
<path d="M1855.6 420.401H1812.77V472.747C1812.77 473.889 1817.85 479.536 1828 489.687C1835.74 499.078 1839.61 512.529 1839.61 530.041C1839.61 559.1 1826.73 580.609 1800.97 594.568C1788.79 601.167 1775.53 604.466 1761.19 604.466C1740.38 604.466 1718.93 595.266 1696.85 576.866C1673.76 557.577 1662.21 536.639 1662.21 514.052C1662.21 503.646 1665.95 492.86 1673.44 481.693C1680.16 471.668 1688.29 463.356 1697.8 456.758C1709.22 448.89 1722.99 444.956 1739.11 444.956C1747.99 444.956 1761.13 447.304 1778.51 451.999C1779.27 451.999 1779.65 451.491 1779.65 450.476V420.401H1649.07V397.56H1855.6V420.401ZM1811.63 504.725C1811.63 486.832 1803.76 474.84 1788.03 468.749C1782.19 466.465 1777.18 465.323 1772.99 465.323C1757.25 465.323 1740.31 472.366 1722.17 486.451C1700.98 502.948 1690.38 523.95 1690.38 549.456C1690.38 561.384 1697.23 571.155 1710.94 578.769C1717.16 582.195 1723.44 583.909 1729.78 583.909C1745.52 583.909 1762.77 576.295 1781.56 561.067C1801.61 544.824 1811.63 526.043 1811.63 504.725Z" fill="#372267"/>
<path d="M2165.48 420.401H2020.82V491.4C2031.35 478.33 2043.91 467.036 2058.51 457.519C2068.4 451.047 2078.3 447.811 2088.2 447.811C2108.25 447.811 2125.13 455.489 2138.83 470.843C2151.39 484.929 2157.68 500.22 2157.68 516.716C2157.68 535.751 2148.48 555.071 2130.08 574.677C2111.68 594.282 2093.02 604.085 2074.11 604.085C2064.47 604.085 2054.32 599.771 2043.66 591.142C2040.36 588.477 2032.24 580.546 2019.29 567.348V606.369L1986.17 592.093V420.401H1954.96V397.56H1986.17C1986.17 367.358 1977.74 337.728 1960.86 308.668C1947.53 285.7 1934.78 268.886 1922.6 258.227H1964.28C1976.85 268.886 1987.82 282.401 1997.21 298.77C2012.95 326.307 2020.82 359.237 2020.82 397.56H2165.48V420.401ZM2136.55 536.322C2136.55 524.521 2129.95 511.767 2116.75 498.063C2102.03 482.708 2084.96 475.031 2065.55 475.031C2053.37 475.031 2041.95 481.058 2031.29 493.114C2027.1 497.936 2025 501.552 2025 503.963C2025 514.496 2029.7 526.678 2039.09 540.51C2058.89 569.696 2079.32 584.289 2100.38 584.289C2113.71 584.289 2124.11 575.724 2131.6 558.593C2134.9 551.106 2136.55 543.682 2136.55 536.322Z" fill="#372267"/>
<path d="M2372.77 420.401H2219.16V477.696C2232.99 462.595 2245.81 452.887 2257.61 448.573C2264.21 446.162 2271.63 444.956 2279.88 444.956C2310.84 444.956 2334 460.184 2349.36 490.639C2356.08 503.963 2359.45 517.097 2359.45 530.041C2359.45 553.644 2349.74 574.962 2330.32 593.997C2323.85 600.342 2319.03 604.72 2315.86 607.131L2284.64 588.477C2292.51 580.229 2301.45 570.077 2311.48 558.022C2322.77 544.444 2328.48 527.312 2328.61 506.628C2328.74 494.319 2325.95 484.04 2320.24 475.792C2313.76 466.148 2304.63 461.453 2292.83 461.707C2281.91 461.96 2270.24 466.084 2257.8 474.079C2246.63 481.185 2237.37 489.687 2230.01 499.585C2222.02 510.245 2218.02 520.523 2218.02 530.421V605.989L2182.42 586.954V420.401H2161.49V397.56H2182.42C2182.42 360.252 2172.72 328.401 2153.3 302.006C2141.63 286.144 2130.84 274.977 2120.94 268.505L2159.39 268.125C2180.71 279.799 2197.65 304.988 2210.22 343.692C2216.18 362.092 2219.16 380.048 2219.16 397.56H2372.77V420.401Z" fill="#372267"/>
<path d="M2556.64 420.401H2429.87V450.857C2430.38 450.857 2430.89 451.111 2431.39 451.618C2431.9 452.126 2432.35 452.38 2432.73 452.38C2431.71 452.38 2431.14 452.316 2431.01 452.189C2431.01 451.555 2440.47 449.524 2459.37 446.098C2466.35 444.829 2473.27 444.195 2480.12 444.195C2508.67 444.195 2527.01 452.189 2535.13 468.178C2540.59 478.838 2543.32 500.347 2543.32 532.706V605.989C2540.65 604.974 2530.56 600.849 2513.05 593.616C2513.05 589.556 2512.23 586.954 2510.58 585.812C2503.85 589.746 2498.33 592.728 2494.02 594.758C2480.31 601.23 2464.39 604.466 2446.24 604.466C2421.24 604.466 2401.95 596.598 2388.38 580.863C2381.78 573.249 2378.48 564.747 2378.48 555.357C2378.48 544.824 2383.68 534.355 2394.08 523.95C2414.26 503.773 2439.32 493.685 2469.27 493.685C2487.42 493.685 2502.01 497.872 2513.05 506.247V488.736C2507.47 481.629 2502.04 476.871 2496.78 474.46C2491.51 472.049 2484.31 470.97 2475.17 471.224C2454.74 471.604 2436.03 475.348 2419.02 482.454C2411.41 485.627 2403.98 488.482 2396.75 491.02V476.934C2398.4 475.538 2400.81 473.445 2403.98 470.653C2404.49 470.018 2404.81 469.638 2404.94 469.511V420.401H2365.91V397.56H2556.64V420.401ZM2513.05 540.89C2513.05 535.307 2506.39 530.294 2493.06 525.853C2482.02 522.173 2472.83 520.333 2465.47 520.333C2438.69 520.333 2417.24 529.977 2401.13 549.266C2394.66 557.006 2391.42 563.351 2391.42 568.3C2394.08 577.564 2404.55 582.195 2422.83 582.195C2446.43 582.195 2468 576.295 2487.54 564.493C2504.55 554.215 2513.05 546.347 2513.05 540.89Z" fill="#372267"/>
<path d="M2792.1 397.56L2791.72 420.401H2772.3V456.758C2770.02 461.326 2764.69 470.97 2756.31 485.69L2688.74 604.466C2677.45 604.466 2662.67 595.52 2644.39 577.627C2624.34 558.085 2614.32 536.386 2614.32 512.529C2614.32 500.347 2618.25 488.989 2626.12 478.457C2629.67 473.635 2631.45 470.018 2631.45 467.607C2631.45 463.166 2627.71 460.945 2620.22 460.945C2614.64 460.945 2609.24 463.229 2604.04 467.798C2602.14 469.447 2598.01 473.952 2591.67 481.312L2567.11 459.042C2575.49 451.935 2583.67 447.557 2591.67 445.908C2595.6 445.02 2600.68 444.575 2606.89 444.575C2641.28 444.195 2658.48 462.531 2658.48 499.585C2658.48 504.534 2657.94 511.958 2656.86 521.856C2655.78 531.754 2655.24 539.177 2655.24 544.126C2655.24 564.176 2658.79 575.089 2665.9 576.866C2669.83 576.866 2674.47 572.044 2679.8 562.399L2737.85 457.519V420.401H2552.84V397.56H2792.1Z" fill="#372267"/>
<path d="M2984.35 420.401H2857.58V450.857C2858.09 450.857 2858.6 451.111 2859.1 451.618C2859.61 452.126 2860.05 452.38 2860.44 452.38C2859.42 452.38 2858.85 452.316 2858.72 452.189C2858.72 451.555 2868.18 449.524 2887.08 446.098C2894.06 444.829 2900.98 444.195 2907.83 444.195C2936.38 444.195 2954.72 452.189 2962.84 468.178C2968.3 478.838 2971.02 500.347 2971.02 532.706V605.989C2968.36 604.974 2958.27 600.849 2940.76 593.616C2940.76 589.556 2939.94 586.954 2938.29 585.812C2931.56 589.746 2926.04 592.728 2921.73 594.758C2908.02 601.23 2892.09 604.466 2873.95 604.466C2848.95 604.466 2829.66 596.598 2816.08 580.863C2809.48 573.249 2806.19 564.747 2806.19 555.357C2806.19 544.824 2811.39 534.355 2821.79 523.95C2841.97 503.773 2867.03 493.685 2896.98 493.685C2915.13 493.685 2929.72 497.872 2940.76 506.247V488.736C2935.18 481.629 2929.75 476.871 2924.49 474.46C2919.22 472.049 2912.02 470.97 2902.88 471.224C2882.45 471.604 2863.73 475.348 2846.73 482.454C2839.12 485.627 2831.69 488.482 2824.46 491.02V476.934C2826.11 475.538 2828.52 473.445 2831.69 470.653C2832.2 470.018 2832.52 469.638 2832.64 469.511V420.401H2793.62V397.56H2984.35V420.401ZM2940.76 540.89C2940.76 535.307 2934.1 530.294 2920.77 525.853C2909.73 522.173 2900.53 520.333 2893.17 520.333C2866.4 520.333 2844.95 529.977 2828.84 549.266C2822.36 557.006 2819.13 563.351 2819.13 568.3C2821.79 577.564 2832.26 582.195 2850.54 582.195C2874.14 582.195 2895.71 576.295 2915.25 564.493C2932.26 554.215 2940.76 546.347 2940.76 540.89Z" fill="#372267"/>
</svg>
