<svg width="1588" height="99" viewBox="0 0 1588 99" fill="none" xmlns="http://www.w3.org/2000/svg">
<path d="M73.9528 4.5757V95H59.4203V56.6194H14.9534V95H0.420919V4.5757H14.9534V42.7079H59.4203V4.5757H73.9528ZM93.2042 49.9121C93.2042 43.6188 94.4049 37.6982 96.8063 32.1501C99.2077 26.6021 102.52 21.6752 106.743 17.3693C110.966 13.0633 115.852 9.70968 121.4 7.30831C127.031 4.82412 133.034 3.58203 139.41 3.58203C145.703 3.58203 151.624 4.82412 157.172 7.30831C162.803 9.70968 167.73 13.0633 171.953 17.3693C176.259 21.6752 179.612 26.6021 182.014 32.1501C184.498 37.6982 185.74 43.6188 185.74 49.9121C185.74 56.2881 184.498 62.2502 182.014 67.7982C179.612 73.3462 176.259 78.2732 171.953 82.5791C167.73 86.8022 162.803 90.1144 157.172 92.5158C151.624 94.8344 145.703 95.9937 139.41 95.9937C132.951 95.9937 126.948 94.8344 121.4 92.5158C115.852 90.1144 110.966 86.8436 106.743 82.7033C102.52 78.4802 99.2077 73.5946 96.8063 68.0466C94.4049 62.4158 93.2042 56.3709 93.2042 49.9121ZM108.109 49.9121C108.109 54.3836 108.896 58.5653 110.469 62.4572C112.125 66.3491 114.403 69.7855 117.301 72.7666C120.199 75.6648 123.553 77.9419 127.362 79.5981C131.171 81.2542 135.311 82.0822 139.783 82.0822C144.089 82.0822 148.105 81.2542 151.831 79.5981C155.64 77.9419 158.952 75.6648 161.768 72.7666C164.583 69.7855 166.777 66.3491 168.351 62.4572C170.007 58.5653 170.835 54.3836 170.835 49.9121C170.835 45.3577 170.007 41.1346 168.351 37.2427C166.695 33.3508 164.459 29.9144 161.643 26.9334C158.828 23.9523 155.516 21.6338 151.707 19.9776C147.898 18.3215 143.799 17.4935 139.41 17.4935C135.021 17.4935 130.922 18.3215 127.113 19.9776C123.304 21.6338 119.951 23.9523 117.052 26.9334C114.237 29.9144 112.043 33.3922 110.469 37.3669C108.896 41.2588 108.109 45.4405 108.109 49.9121ZM252.499 22.9587C249.269 21.3025 245.833 19.8948 242.189 18.7356C238.546 17.4935 235.068 16.8724 231.756 16.8724C227.284 16.8724 223.723 17.8661 221.074 19.8534C218.507 21.8408 217.223 24.5734 217.223 28.0512C217.223 30.5354 218.134 32.7298 219.956 34.6343C221.778 36.4561 224.096 38.0708 226.912 39.4785C229.727 40.8034 232.708 42.0869 235.855 43.329C238.587 44.3226 241.278 45.5233 243.928 46.931C246.661 48.2559 249.104 49.9121 251.257 51.8994C253.409 53.8868 255.107 56.3709 256.349 59.352C257.674 62.2502 258.336 65.8522 258.336 70.1582C258.336 74.8781 257.136 79.2254 254.734 83.2001C252.333 87.092 248.897 90.1972 244.425 92.5158C239.953 94.8344 234.488 95.9937 228.029 95.9937C224.303 95.9937 220.618 95.5796 216.975 94.7516C213.414 93.9235 210.019 92.8056 206.79 91.3979C203.56 89.9074 200.579 88.2513 197.847 86.4296L204.305 75.1265C206.293 76.617 208.57 77.9833 211.137 79.2254C213.704 80.4675 216.354 81.4612 219.086 82.2065C221.819 82.8689 224.386 83.2001 226.787 83.2001C229.354 83.2001 231.88 82.7861 234.364 81.958C236.931 81.13 239.043 79.7637 240.699 77.8591C242.438 75.9546 243.307 73.429 243.307 70.2824C243.307 67.7154 242.562 65.521 241.071 63.6993C239.581 61.8775 237.635 60.3042 235.234 58.9793C232.915 57.5716 230.348 56.3295 227.533 55.2531C224.717 54.1766 221.819 52.9759 218.838 51.651C215.94 50.3261 213.249 48.7114 210.764 46.8068C208.28 44.8195 206.251 42.4181 204.678 39.6027C203.105 36.7873 202.318 33.3094 202.318 29.1691C202.318 24.2008 203.477 19.8948 205.796 16.2514C208.115 12.6079 211.303 9.70968 215.36 7.55672C219.5 5.40377 224.262 4.24448 229.644 4.07887C236.02 4.07887 241.444 4.86552 245.916 6.43884C250.47 7.92935 254.486 9.75109 257.964 11.904L252.499 22.9587ZM302.931 4.5757C309.804 4.5757 315.684 5.73499 320.569 8.05356C325.455 10.3721 329.181 13.6844 331.748 17.9903C334.398 22.2962 335.723 27.513 335.723 33.6407C335.723 37.2013 335.143 40.762 333.984 44.3226C332.907 47.8833 331.168 51.1128 328.767 54.011C326.448 56.9092 323.302 59.2692 319.327 61.0909C315.435 62.8298 310.632 63.6993 304.919 63.6993H291.877V95H277.344V4.5757H302.931ZM304.919 49.6636C308.065 49.6636 310.715 49.1254 312.868 48.0489C315.021 46.9724 316.677 45.6061 317.837 43.95C319.079 42.2939 319.948 40.5964 320.445 38.8574C321.025 37.0357 321.314 35.421 321.314 34.0133C321.314 32.5228 321.066 30.9081 320.569 29.1691C320.072 27.3474 319.244 25.6499 318.085 24.0765C316.926 22.4204 315.311 21.0955 313.241 20.1019C311.171 19.0254 308.521 18.4871 305.291 18.4871H291.877V49.6636H304.919ZM353.277 4.5757H367.809V95H353.277V4.5757ZM386.24 4.5757H446.73V18.4871H423.378V95H408.97V18.4871H386.24V4.5757ZM448.517 95L488.513 0.849432H489.382L529.377 95H512.733L484.538 23.5797L494.971 16.4998L462.801 95H448.517ZM473.607 61.4635H504.536L509.504 73.7602H469.26L473.607 61.4635ZM544.807 4.5757H559.339V81.0886H603.93V95H544.807V4.5757ZM623.044 4.5757H637.576V95H623.044V4.5757ZM656.007 4.5757H716.497V18.4871H693.145V95H678.737V18.4871H656.007V4.5757ZM758.729 65.6866L725.316 4.5757H743.078L768.541 53.2657L764.194 53.5141L789.284 4.5757H807.046L773.137 65.6866V95H758.729V65.6866ZM909.57 22.9587C906.341 21.3025 902.904 19.8948 899.261 18.7356C895.617 17.4935 892.139 16.8724 888.827 16.8724C884.356 16.8724 880.795 17.8661 878.145 19.8534C875.578 21.8408 874.295 24.5734 874.295 28.0512C874.295 30.5354 875.206 32.7298 877.027 34.6343C878.849 36.4561 881.168 38.0708 883.983 39.4785C886.798 40.8034 889.779 42.0869 892.926 43.329C895.659 44.3226 898.35 45.5233 901 46.931C903.732 48.2559 906.175 49.9121 908.328 51.8994C910.481 53.8868 912.179 56.3709 913.421 59.352C914.746 62.2502 915.408 65.8522 915.408 70.1582C915.408 74.8781 914.207 79.2254 911.806 83.2001C909.405 87.092 905.968 90.1972 901.497 92.5158C897.025 94.8344 891.56 95.9937 885.101 95.9937C881.375 95.9937 877.69 95.5796 874.046 94.7516C870.486 93.9235 867.091 92.8056 863.861 91.3979C860.632 89.9074 857.651 88.2513 854.918 86.4296L861.377 75.1265C863.364 76.617 865.641 77.9833 868.208 79.2254C870.775 80.4675 873.425 81.4612 876.158 82.2065C878.89 82.8689 881.457 83.2001 883.859 83.2001C886.426 83.2001 888.951 82.7861 891.436 81.958C894.003 81.13 896.114 79.7637 897.77 77.8591C899.509 75.9546 900.379 73.429 900.379 70.2824C900.379 67.7154 899.633 65.521 898.143 63.6993C896.652 61.8775 894.706 60.3042 892.305 58.9793C889.986 57.5716 887.419 56.3295 884.604 55.2531C881.789 54.1766 878.89 52.9759 875.909 51.651C873.011 50.3261 870.32 48.7114 867.836 46.8068C865.352 44.8195 863.323 42.4181 861.75 39.6027C860.176 36.7873 859.39 33.3094 859.39 29.1691C859.39 24.2008 860.549 19.8948 862.867 16.2514C865.186 12.6079 868.374 9.70968 872.432 7.55672C876.572 5.40377 881.333 4.24448 886.716 4.07887C893.092 4.07887 898.516 4.86552 902.987 6.43884C907.541 7.92935 911.557 9.75109 915.035 11.904L909.57 22.9587ZM928.826 49.9121C928.826 43.6188 930.027 37.6982 932.428 32.1501C934.83 26.6021 938.142 21.6752 942.365 17.3693C946.588 13.0633 951.474 9.70968 957.022 7.30831C962.653 4.82412 968.656 3.58203 975.032 3.58203C981.325 3.58203 987.246 4.82412 992.794 7.30831C998.425 9.70968 1003.35 13.0633 1007.58 17.3693C1011.88 21.6752 1015.23 26.6021 1017.64 32.1501C1020.12 37.6982 1021.36 43.6188 1021.36 49.9121C1021.36 56.2881 1020.12 62.2502 1017.64 67.7982C1015.23 73.3462 1011.88 78.2732 1007.58 82.5791C1003.35 86.8022 998.425 90.1144 992.794 92.5158C987.246 94.8344 981.325 95.9937 975.032 95.9937C968.573 95.9937 962.57 94.8344 957.022 92.5158C951.474 90.1144 946.588 86.8436 942.365 82.7033C938.142 78.4802 934.83 73.5946 932.428 68.0466C930.027 62.4158 928.826 56.3709 928.826 49.9121ZM943.731 49.9121C943.731 54.3836 944.518 58.5653 946.091 62.4572C947.748 66.3491 950.025 69.7855 952.923 72.7666C955.821 75.6648 959.175 77.9419 962.984 79.5981C966.793 81.2542 970.933 82.0822 975.405 82.0822C979.711 82.0822 983.727 81.2542 987.453 79.5981C991.262 77.9419 994.574 75.6648 997.39 72.7666C1000.21 69.7855 1002.4 66.3491 1003.97 62.4572C1005.63 58.5653 1006.46 54.3836 1006.46 49.9121C1006.46 45.3577 1005.63 41.1346 1003.97 37.2427C1002.32 33.3508 1000.08 29.9144 997.266 26.9334C994.45 23.9523 991.138 21.6338 987.329 19.9776C983.52 18.3215 979.421 17.4935 975.032 17.4935C970.643 17.4935 966.545 18.3215 962.735 19.9776C958.926 21.6338 955.573 23.9523 952.675 26.9334C949.859 29.9144 947.665 33.3922 946.091 37.3669C944.518 41.2588 943.731 45.4405 943.731 49.9121ZM1040.67 4.5757H1055.21V81.0886H1099.8V95H1040.67V4.5757ZM1131.95 62.4572C1131.95 66.0179 1132.86 69.2887 1134.68 72.2697C1136.59 75.1679 1139.07 77.5279 1142.14 79.3496C1145.2 81.0886 1148.64 81.958 1152.45 81.958C1156.42 81.958 1159.98 81.0886 1163.13 79.3496C1166.28 77.5279 1168.76 75.1679 1170.58 72.2697C1172.4 69.2887 1173.31 66.0179 1173.31 62.4572V4.5757H1187.6V62.8298C1187.6 69.3715 1186.02 75.1679 1182.88 80.2191C1179.73 85.1875 1175.51 89.0794 1170.21 91.8948C1164.91 94.6274 1158.99 95.9937 1152.45 95.9937C1145.99 95.9937 1140.11 94.6274 1134.81 91.8948C1129.51 89.0794 1125.29 85.1875 1122.14 80.2191C1119.08 75.1679 1117.54 69.3715 1117.54 62.8298V4.5757H1131.95V62.4572ZM1204.52 4.5757H1265.01V18.4871H1241.66V95H1227.25V18.4871H1204.52V4.5757ZM1283.39 4.5757H1297.92V95H1283.39V4.5757ZM1317.22 49.9121C1317.22 43.6188 1318.42 37.6982 1320.82 32.1501C1323.23 26.6021 1326.54 21.6752 1330.76 17.3693C1334.98 13.0633 1339.87 9.70968 1345.42 7.30831C1351.05 4.82412 1357.05 3.58203 1363.43 3.58203C1369.72 3.58203 1375.64 4.82412 1381.19 7.30831C1386.82 9.70968 1391.75 13.0633 1395.97 17.3693C1400.28 21.6752 1403.63 26.6021 1406.03 32.1501C1408.52 37.6982 1409.76 43.6188 1409.76 49.9121C1409.76 56.2881 1408.52 62.2502 1406.03 67.7982C1403.63 73.3462 1400.28 78.2732 1395.97 82.5791C1391.75 86.8022 1386.82 90.1144 1381.19 92.5158C1375.64 94.8344 1369.72 95.9937 1363.43 95.9937C1356.97 95.9937 1350.97 94.8344 1345.42 92.5158C1339.87 90.1144 1334.98 86.8436 1330.76 82.7033C1326.54 78.4802 1323.23 73.5946 1320.82 68.0466C1318.42 62.4158 1317.22 56.3709 1317.22 49.9121ZM1332.13 49.9121C1332.13 54.3836 1332.91 58.5653 1334.49 62.4572C1336.14 66.3491 1338.42 69.7855 1341.32 72.7666C1344.22 75.6648 1347.57 77.9419 1351.38 79.5981C1355.19 81.2542 1359.33 82.0822 1363.8 82.0822C1368.11 82.0822 1372.12 81.2542 1375.85 79.5981C1379.66 77.9419 1382.97 75.6648 1385.79 72.7666C1388.6 69.7855 1390.8 66.3491 1392.37 62.4572C1394.03 58.5653 1394.85 54.3836 1394.85 49.9121C1394.85 45.3577 1394.03 41.1346 1392.37 37.2427C1390.71 33.3508 1388.48 29.9144 1385.66 26.9334C1382.85 23.9523 1379.53 21.6338 1375.73 19.9776C1371.92 18.3215 1367.82 17.4935 1363.43 17.4935C1359.04 17.4935 1354.94 18.3215 1351.13 19.9776C1347.32 21.6338 1343.97 23.9523 1341.07 26.9334C1338.26 29.9144 1336.06 33.3922 1334.49 37.3669C1332.91 41.2588 1332.13 45.4405 1332.13 49.9121ZM1508.56 98.2294L1439.13 30.9081L1443.35 32.647L1443.73 95H1429.07V1.47048H1429.69L1498.13 68.7919L1494.78 67.7982L1494.53 4.5757H1508.94V98.2294H1508.56ZM1581.32 22.9587C1578.09 21.3025 1574.65 19.8948 1571.01 18.7356C1567.37 17.4935 1563.89 16.8724 1560.58 16.8724C1556.1 16.8724 1552.54 17.8661 1549.89 19.8534C1547.33 21.8408 1546.04 24.5734 1546.04 28.0512C1546.04 30.5354 1546.95 32.7298 1548.78 34.6343C1550.6 36.4561 1552.92 38.0708 1555.73 39.4785C1558.55 40.8034 1561.53 42.0869 1564.67 43.329C1567.41 44.3226 1570.1 45.5233 1572.75 46.931C1575.48 48.2559 1577.92 49.9121 1580.08 51.8994C1582.23 53.8868 1583.93 56.3709 1585.17 59.352C1586.49 62.2502 1587.16 65.8522 1587.16 70.1582C1587.16 74.8781 1585.96 79.2254 1583.55 83.2001C1581.15 87.092 1577.72 90.1972 1573.25 92.5158C1568.77 94.8344 1563.31 95.9937 1556.85 95.9937C1553.12 95.9937 1549.44 95.5796 1545.79 94.7516C1542.23 93.9235 1538.84 92.8056 1535.61 91.3979C1532.38 89.9074 1529.4 88.2513 1526.67 86.4296L1533.13 75.1265C1535.11 76.617 1537.39 77.9833 1539.96 79.2254C1542.52 80.4675 1545.17 81.4612 1547.91 82.2065C1550.64 82.8689 1553.21 83.2001 1555.61 83.2001C1558.17 83.2001 1560.7 82.7861 1563.18 81.958C1565.75 81.13 1567.86 79.7637 1569.52 77.8591C1571.26 75.9546 1572.13 73.429 1572.13 70.2824C1572.13 67.7154 1571.38 65.521 1569.89 63.6993C1568.4 61.8775 1566.45 60.3042 1564.05 58.9793C1561.74 57.5716 1559.17 56.3295 1556.35 55.2531C1553.54 54.1766 1550.64 52.9759 1547.66 51.651C1544.76 50.3261 1542.07 48.7114 1539.58 46.8068C1537.1 44.8195 1535.07 42.4181 1533.5 39.6027C1531.92 36.7873 1531.14 33.3094 1531.14 29.1691C1531.14 24.2008 1532.3 19.8948 1534.62 16.2514C1536.93 12.6079 1540.12 9.70968 1544.18 7.55672C1548.32 5.40377 1553.08 4.24448 1558.46 4.07887C1564.84 4.07887 1570.26 4.86552 1574.74 6.43884C1579.29 7.92935 1583.31 9.75109 1586.78 11.904L1581.32 22.9587Z" fill="#37266F"/>
</svg>
